<?xml version="1.0" encoding="UTF-8" standalone="no"?>
<svg width="238px" height="34px" viewBox="0 0 238 34" version="1.1" xmlns="http://www.w3.org/2000/svg" xmlns:xlink="http://www.w3.org/1999/xlink" xmlns:sketch="http://www.bohemiancoding.com/sketch/ns">
    <!-- Generator: Sketch 3.5.2 (25235) - http://www.bohemiancoding.com/sketch -->
    <title>leaves-and-lines</title>
    <desc>Created with Sketch.</desc>
    <defs></defs>
    <g id="Page-1" stroke="none" stroke-width="1" fill="none" fill-rule="evenodd" sketch:type="MSPage">
        <g id="leaves-and-lines" sketch:type="MSArtboardGroup">
            <g id="Group-12" sketch:type="MSLayerGroup" transform="translate(6.000000, 3.000000)">
                <path d="M0.381095323,15.3485476 L88.569458,15.3485476" id="Line" stroke="#CFCFA1" stroke-width="2" stroke-linecap="square" sketch:type="MSShapeGroup"></path>
                <path d="M138.381095,15.3485476 L226.569458,15.3485476" id="Line-Copy" stroke="#CFCFA1" stroke-width="2" stroke-linecap="square" sketch:type="MSShapeGroup"></path>
                <path d="M130.98481,20.7661314 C130.621404,19.8892212 130.112637,19.2821294 129.473043,18.6581741 C128.659016,17.8487185 127.961277,17.5788999 126.929206,17.3596724 C126.536729,17.2753541 126.260541,17.376536 125.868063,17.4439906 C125.461049,17.5114453 125.155788,17.6800819 124.777847,17.8149911 C124.370833,17.9499004 123.949283,18.017355 123.542269,18.169128 C123.353298,18.2534463 123.062574,18.4389465 122.931748,18.1354007 C123.585878,17.325945 124.385369,16.685126 125.170325,16.0274433 C125.519194,15.7407611 125.795382,15.4203516 126.100642,15.0493511 C126.275077,14.8301235 126.405903,14.610896 126.536729,14.3579411 C126.623946,14.2061682 126.711163,13.8014404 126.827453,13.6665311 L126.827453,13.6665311 C127.074568,13.0088484 126.929206,12.2668474 126.929206,11.5923011 C126.929206,10.9683457 127.132713,10.209481 126.841989,9.65298031 C126.653018,9.93966251 126.449511,10.0239808 126.202396,10.1926174 C125.897135,10.3781176 125.708165,10.6816635 125.461049,10.9346184 C124.99589,11.3899372 124.341761,11.5923011 123.760312,11.7778013 C123.49866,11.8621196 123.178864,11.9633016 122.931748,12.0138925 C122.786386,12.0307562 122.611951,12.0138925 122.466589,12.0138925 C122.103184,12.0307562 122.190401,12.0982108 121.972358,11.8283923 C121.754315,11.5585737 121.667098,11.103255 121.507199,10.7828454 C121.39091,10.5298906 121.231011,10.3275267 121.085649,10.0914354 C120.707708,9.50120738 120.31523,8.9615703 119.879144,8.43879688 C119.646564,8.15211468 119.384912,7.88229614 119.137797,7.62934126 C118.818,7.30893174 118.774391,7.27520443 119.108724,6.87047662 C120.053578,5.75747514 120.969359,4.45897342 121.536272,3.02556243 C121.681634,2.68828925 122.248546,1.7270607 122.015967,1.38978753 C121.943286,1.27174192 121.739779,1.33919655 121.652561,1.2380146 C121.550808,1.08624167 121.652561,1.06937801 121.638025,0.883877767 C121.608953,0.614059227 121.565344,0.428558981 121.27462,0.361104346 C120.765852,0.243058735 120.794925,0.985059719 120.664099,1.42351485 C120.446056,2.18237949 120.024506,2.75574389 119.719245,3.44715389 C119.544811,3.83501805 119.399449,4.2228822 119.181405,4.61074635 C118.992435,4.94801952 118.818,5.2852927 118.614493,5.60570221 C118.498203,5.79120246 118.222015,6.31397588 118.018508,6.41515783 C117.771393,6.56693076 117.233553,5.92611173 116.986437,5.74061148 C116.492206,5.36961099 115.983439,4.9986105 115.489207,4.64447366 C114.86415,4.20601854 114.180948,3.81815439 113.512283,3.46401755 C113.148877,3.26165365 113.032588,3.17733535 112.785472,3.56519951 C112.712791,3.66638146 112.669182,3.78442707 112.64011,3.88560902 C113.832079,4.98174684 115.242092,5.75747514 116.274163,7.08970418 C116.434061,7.30893174 116.448597,7.56188663 116.36138,7.76425053 C116.36138,7.83170517 116.36138,7.91602346 116.346844,8.00034175 C116.24509,8.53997883 115.794468,8.9615703 115.474671,9.31570713 C115.387454,9.41688909 115.154875,9.7372986 115.024049,9.66984397 C114.835078,9.56866202 114.994976,9.46748006 115.024049,9.29884348 C115.09673,8.86038835 115.227556,8.42193322 115.314773,7.98347809 C115.329309,7.86543248 115.343845,7.78111419 115.343845,7.71365955 C115.242092,7.59561394 115.125802,7.47756833 115.024049,7.35952272 C114.936831,7.3257954 114.835078,7.29206809 114.733324,7.22461345 C114.4426,7.07284052 114.180948,6.87047662 113.890224,6.66811271 C113.119805,6.16220295 112.40753,5.38647465 111.593503,4.9986105 C111.186489,4.79624659 110.692257,4.72879196 110.256171,4.62761001 C109.965447,4.56015537 109.674723,4.50956439 109.383998,4.47583708 C109.122347,4.44210976 108.744405,4.54329171 108.497289,4.44210976 C108.235638,4.34092781 108.061203,4.03738195 107.741406,3.91933634 C107.378001,3.78442707 106.941915,3.59892682 106.549437,3.66638146 C106.418611,3.68324512 106.287785,3.76756341 106.156959,3.78442707 C105.92438,3.81815439 105.677264,3.75069975 105.430149,3.80129073 C104.921381,3.90247268 104.339933,4.20601854 103.831165,4.15542756 C103.569514,4.12170024 103.336934,4.02051829 103.075282,4.05424561 C102.770022,4.08797293 102.522906,4.23974586 102.232182,4.35779147 C101.650734,4.57701903 101.054749,4.45897342 100.4733,4.56015537 C100.080823,4.62761001 99.6447363,5.03233782 99.281331,5.25156538 C99.005143,5.42020197 98.7434912,5.53824758 98.4527669,5.67315685 C98.321941,5.74061148 98.0312168,6.02729368 97.9294633,6.02729368 C97.4933769,6.41515783 97.0427543,6.78615832 96.7084215,7.22461345 C96.3014075,7.74738687 95.8071763,8.01720541 95.2984089,8.32075127 C94.7896415,8.62429713 95.0512933,9.14707055 95.2111916,9.61925299 C95.3274813,9.95652617 95.4001624,10.411845 95.5164521,10.7828454 C95.7199591,11.3899372 95.923466,12.0138925 96.2287265,12.5703933 C96.4903783,13.0594394 96.5921318,13.7339857 96.9846095,14.0712589 C97.2171889,14.2736228 97.4933769,14.3579411 97.7259563,14.5265777 C97.9294633,14.6783506 98.0021443,14.8132599 98.1475065,15.0324874 C98.3655496,15.352897 98.6708101,15.6058518 98.8888533,15.9262614 C99.1359689,16.2635345 99.3540121,16.6008077 99.6592725,16.8706262 C100.124431,17.2922177 100.676807,17.5957636 101.12743,18.0510824 C101.476299,18.4052192 101.897849,18.6244468 102.319399,18.911129 C103.220644,19.5182207 104.42715,19.6699936 105.444685,19.9735395 C106.069742,20.1590397 106.680263,20.3614036 107.30532,20.5637675 C107.828624,20.7492678 108.322855,21.03595 108.846159,21.2045865 C109.282245,21.3563595 110.125345,21.8622692 110.546895,21.5249961 C110.852156,21.2889048 111.070199,20.7829951 111.215561,20.3782673 C111.302778,20.1084487 111.360923,19.8049029 111.433604,19.551948 C111.535358,19.1640838 111.608039,18.8268107 111.666184,18.4558102 C111.753401,17.8824458 111.98598,17.4102633 111.913299,16.8200353 C111.826082,16.1454889 111.535358,15.5721245 111.215561,15.0493511 C110.939373,14.5771687 110.634113,14.3073501 110.212562,14.0038043 C110.532359,13.919486 110.198026,13.767713 110.241635,13.5822128 C110.285244,13.4135762 110.634113,13.1943486 110.764939,13.1437577 C110.939373,13.076303 111.070199,13.0931667 111.244634,13.1100304 C111.549894,13.1437577 111.695256,13.0594394 111.98598,12.9751211 C112.21856,12.9076664 112.422067,12.9076664 112.654646,12.8064845 C112.814544,12.7390299 113.018051,12.7390299 113.163414,12.6378479 C113.294239,12.536666 113.395993,12.3174384 113.541355,12.1825291 C113.730326,11.9970289 113.861152,11.7609377 114.035586,11.5754374 C114.253629,11.2044369 114.835078,10.9683457 115.154875,10.7491181 C115.547352,10.4624359 115.896221,10.1420264 116.24509,9.80475324 C116.710249,9.34943445 117.43706,8.50625152 118.091189,8.77607006 C118.469131,8.92784298 118.890681,9.48434372 119.181405,9.80475324 C119.544811,10.1757537 119.908216,10.5636179 120.228013,10.9852093 C120.475128,11.3056189 120.73678,11.693483 120.940287,12.0476198 C121.129258,12.384893 121.143794,12.384893 120.823997,12.536666 C120.649563,12.6209842 120.43152,12.6378479 120.257085,12.7221662 C120.126259,12.8570755 119.428521,13.0257121 119.181405,13.126894 C118.70171,13.3123943 118.149334,13.4978945 117.756857,13.868895 C117.422524,14.1724409 117.219017,14.4759867 116.855611,14.7289416 C116.506742,14.9650328 116.143337,15.3697606 115.765395,15.5383972 L115.765395,15.5383972 L115.765395,15.5383972 C115.213019,15.8419431 114.893223,17.0223992 114.544354,17.5620363 C114.282702,17.9667641 113.919297,18.3209009 113.773934,18.7930833 C113.730326,18.9617199 113.570427,19.8723575 113.730326,20.0072668 C113.279703,20.0578577 113.134341,21.2214502 113.032588,21.575587 C112.785472,22.4862246 112.538356,23.3799985 112.291241,24.2737724 C112.116806,24.8977278 111.68072,25.3193193 111.549894,25.9095473 C111.477213,26.2805478 111.419068,26.668412 111.56443,27.0562761 C111.782473,27.6127769 112.029589,27.5115949 112.509284,27.410413 C112.073198,27.5621859 113.06166,27.5790495 113.148877,27.5790495 C113.730326,27.5959132 114.311774,27.6296405 114.893223,27.6802315 C115.009512,27.6970952 115.125802,27.6970952 115.256628,27.6970952 C117.43706,27.6802315 119.588419,27.3935493 121.710706,26.9213669 C122.132256,26.7190029 122.524734,26.3817298 122.96082,26.2299568 C123.469588,26.0444566 124.021964,26.0613203 124.516195,25.8420927 C124.792383,25.7240471 124.981354,25.5216832 125.170325,25.3361829 C125.359295,25.1506827 125.562802,24.9820461 125.766309,24.8134095 C125.824454,24.7628185 126.173323,24.442409 126.231468,24.442409 C126.362294,24.2906361 126.565801,24.2063178 126.711163,24.0545449 C126.812917,23.9533629 126.929206,23.7172717 127.03096,23.6329534 C127.249003,23.4643168 127.699626,23.5149078 127.975814,23.2788166 C128.600871,23.0427253 129.036957,22.5705429 129.560261,22.1489514 C129.778304,21.9971785 131.159244,21.1877229 130.98481,20.7661314 L130.98481,20.7661314 Z" id="Shape" fill="#CFCFA1" sketch:type="MSShapeGroup"></path>
            </g>
        </g>
    </g>
</svg>