<?xml version="1.0" encoding="UTF-8" standalone="no"?>
<svg width="48px" height="47px" viewBox="0 0 48 47" version="1.1" xmlns="http://www.w3.org/2000/svg" xmlns:xlink="http://www.w3.org/1999/xlink" xmlns:sketch="http://www.bohemiancoding.com/sketch/ns">
    <!-- Generator: Sketch 3.5.2 (25235) - http://www.bohemiancoding.com/sketch -->
    <title>shopper-icon</title>
    <desc>Created with Sketch.</desc>
    <defs></defs>
    <g id="Page-1" stroke="none" stroke-width="1" fill="none" fill-rule="evenodd" sketch:type="MSPage">
        <g id="Shopper-Login" sketch:type="MSArtboardGroup" transform="translate(-227.000000, -131.000000)" fill="#585551">
            <g id="shopper-icon" sketch:type="MSLayerGroup" transform="translate(227.000000, 131.000000)">
                <g id="Group" sketch:type="MSShapeGroup">
                    <path d="M47.30112,7.79909278 C46.92384,7.3373299 46.36176,7.06986598 45.768,7.06986598 L11.84208,7.06986598 L10.20912,1.53258763 C9.95808,0.681257732 9.18336,0.0978762887 8.30352,0.0978762887 L2.23344,0.0978762887 C1.1352,0.0978762887 0.2448,0.996690722 0.2448,2.10530928 C0.2448,3.21392784 1.1352,4.11225773 2.23344,4.11225773 L6.82032,4.11225773 L14.25168,29.3095876 C13.44624,30.8005052 12.68208,32.9348866 13.54848,34.7228247 C14.31552,36.3058041 16.0488,37.1086804 18.69936,37.1086804 C18.74736,37.1086804 18.79536,37.1067423 18.84336,37.1018969 C19.01568,37.0859072 36.14592,35.5005052 42.05232,35.8382268 C42.91344,35.8847423 43.65936,35.2194742 43.70832,34.3453711 C43.75728,33.4717526 43.09488,32.7231443 42.22896,32.6746907 C36.23232,32.3330928 20.03904,33.8089897 18.62976,33.9393299 C17.17632,33.9296392 16.50336,33.6069381 16.36896,33.3307526 C16.2192,33.0230722 16.32576,32.4416289 16.57776,31.7836289 C16.62,31.7812062 16.66176,31.7807216 16.70496,31.7753918 L42.6576,28.6065258 C43.51536,28.5013814 44.208,27.8491959 44.3712,26.9935052 L47.72064,9.45765979 C47.83248,8.86894845 47.67888,8.26085567 47.30112,7.79909278 L47.30112,7.79909278 Z M32.89584,17.5358454 L24.73344,17.5358454 L24.73344,11.0842474 L32.89584,11.0842474 L32.89584,17.5358454 L32.89584,17.5358454 Z M15.49008,19.4371649 L22.84992,19.4371649 L22.84992,26.9813918 L17.89296,27.5870619 L15.49008,19.4371649 L15.49008,19.4371649 Z M24.73344,19.4371649 L32.89584,19.4371649 L32.89584,25.7545464 L24.73344,26.7512371 L24.73344,19.4371649 L24.73344,19.4371649 Z M42.12816,17.5358454 L34.77984,17.5358454 L34.77984,11.0842474 L43.36032,11.0842474 L42.12816,17.5358454 L42.12816,17.5358454 Z M22.84992,11.0842474 L22.84992,17.5358454 L14.92896,17.5358454 L13.02624,11.0842474 L22.84992,11.0842474 L22.84992,11.0842474 Z M34.77984,25.5243918 L34.77984,19.4371649 L41.7648,19.4371649 L40.74096,24.796134 L34.77984,25.5243918 L34.77984,25.5243918 Z" id="Shape"></path>
                    <ellipse id="Oval" cx="16.26048" cy="42.6663093" rx="3.97296" ry="4.01050515"></ellipse>
                    <ellipse id="Oval" cx="38.86464" cy="42.6663093" rx="3.97296" ry="4.01050515"></ellipse>
                </g>
            </g>
        </g>
    </g>
</svg>