<?xml version="1.0" encoding="UTF-8" standalone="no"?>
<svg width="57px" height="45px" viewBox="0 0 57 45" version="1.1" xmlns="http://www.w3.org/2000/svg" xmlns:xlink="http://www.w3.org/1999/xlink" xmlns:sketch="http://www.bohemiancoding.com/sketch/ns">
    <!-- Generator: Sketch 3.5.2 (25235) - http://www.bohemiancoding.com/sketch -->
    <title>small-leaves</title>
    <desc>Created with Sketch.</desc>
    <defs></defs>
    <g id="Page-1" stroke="none" stroke-width="1" fill="none" fill-rule="evenodd" sketch:type="MSPage">
        <g id="small-leaves" sketch:type="MSArtboardGroup" fill="#D8D8C0">
            <path d="M52.727221,30.9803786 C52.2452309,29.8216044 51.5704446,29.019376 50.7221419,28.1948636 C49.6424838,27.1252258 48.7170627,26.7686799 47.3482105,26.4789863 C46.8276611,26.3675657 46.4613486,26.5012704 45.9407992,26.5904069 C45.4009702,26.6795434 44.9960984,26.9023846 44.4948286,27.0806576 C43.9549996,27.2589305 43.395891,27.348067 42.856062,27.5486241 C42.6054271,27.6600447 42.2198349,27.90517 42.0463184,27.5040558 C42.9139008,26.4344181 43.9742792,25.5876215 45.015378,24.7185408 C45.4780886,24.3397107 45.8444011,23.9163125 46.2492729,23.4260618 C46.4806282,23.1363682 46.6541447,22.8466747 46.8276611,22.5124129 C46.9433388,22.3118558 47.0590164,21.7770369 47.2132533,21.5987639 L47.2132533,21.5987639 C47.5410066,20.7296832 47.3482105,19.7491819 47.3482105,18.8578171 C47.3482105,18.0333046 47.618125,17.0305192 47.2325329,16.2951433 C46.981898,16.6739733 46.7119835,16.7853939 46.3842301,17.0082351 C45.9793584,17.2533604 45.7287235,17.6544746 45.4009702,17.9887364 C44.7840227,18.5904077 43.9164404,18.8578171 43.1452561,19.1029424 C42.7982231,19.214363 42.3740718,19.3480678 42.0463184,19.4149201 C41.8535224,19.4372042 41.6221671,19.4149201 41.429371,19.4149201 C40.9473808,19.4372042 41.0630585,19.5263407 40.7738643,19.1697948 C40.4846702,18.8132489 40.3689926,18.2115776 40.1569169,17.7881793 C40.00268,17.4539175 39.7906044,17.1865081 39.5978083,16.8745304 C39.0965385,16.0945862 38.5759891,15.3814943 37.9976009,14.6906866 C37.6891271,14.3118565 37.3420942,13.9553106 37.0143409,13.6210488 C36.5901895,13.1976505 36.5323507,13.1530823 36.9757817,12.6182634 C38.2289561,11.1475114 39.4435714,9.43163415 40.1954761,7.53748391 C40.3882722,7.0918015 41.1401769,5.82160663 40.8317032,5.37592422 C40.7353051,5.21993538 40.4653906,5.30907186 40.349713,5.17536714 C40.2147557,4.97481005 40.349713,4.95252593 40.3304334,4.70740061 C40.2918742,4.35085468 40.2340353,4.10572935 39.8484432,4.01659287 C39.1736569,3.86060403 39.2122161,4.84110533 39.0386997,5.42049246 C38.7495055,6.42327788 38.1903969,7.18093798 37.7855252,8.09458692 C37.5541699,8.60712169 37.3613738,9.11965646 37.0721797,9.63219123 C36.8215448,10.0778736 36.5901895,10.523556 36.320275,10.9469543 C36.1660381,11.1920797 35.7997256,11.8828874 35.5298111,12.0165921 C35.2020578,12.2171492 34.4887123,11.3703526 34.1609589,11.1252273 C33.5054523,10.6349767 32.830666,10.144726 32.1751594,9.67675947 C31.3461362,9.09737234 30.4399947,8.58483757 29.5531327,8.11687104 C29.0711425,7.84946159 28.9169057,7.73804099 28.5891524,8.25057576 C28.4927543,8.38428048 28.4349155,8.54026933 28.3963563,8.67397405 C29.9772841,10.1224419 31.847406,11.1475114 33.2162582,12.9079569 C33.4283339,13.1976505 33.4476135,13.5319123 33.3319358,13.7993218 C33.3319358,13.8884582 33.3319358,13.9998788 33.3126562,14.1112994 C33.177699,14.8243913 32.5800311,15.3814943 32.1558798,15.8494608 C32.0402021,15.9831656 31.7317284,16.4065639 31.5582119,16.3174274 C31.307577,16.1837226 31.5196527,16.0500179 31.5582119,15.8271767 C31.65461,15.2477896 31.8281264,14.6684025 31.9438041,14.0890153 C31.9630837,13.9330265 31.9823633,13.8216059 31.9823633,13.7324694 C31.847406,13.5764806 31.6931692,13.4204917 31.5582119,13.2645029 C31.4425343,13.2199346 31.307577,13.1753664 31.1726198,13.0862299 C30.7870276,12.8856728 30.4399947,12.6182634 30.0544025,12.3508539 C29.0325833,11.6823303 28.0878826,10.6572608 27.0082245,10.144726 C26.4683955,9.87731656 25.8128889,9.78818007 25.2345006,9.65447535 C24.8489085,9.56533887 24.4633163,9.49848651 24.0777242,9.45391827 C23.7306912,9.40935003 23.2294214,9.54305475 22.9016681,9.40935003 C22.5546352,9.2756453 22.3232799,8.87453113 21.8991285,8.71854229 C21.4171383,8.54026933 20.8387501,8.295144 20.3182007,8.38428048 C20.1446842,8.4065646 19.9711678,8.51798521 19.7976513,8.54026933 C19.4891776,8.58483757 19.1614242,8.49570109 18.8336709,8.56255345 C18.1588847,8.69625817 17.3877004,9.09737234 16.7129141,9.03051998 C16.3658811,8.98595174 16.0574074,8.85224701 15.7103745,8.89681525 C15.3055027,8.9413835 14.9777494,9.14194058 14.5921573,9.29792942 C13.8209729,9.58762299 13.030509,9.43163415 12.2593247,9.56533887 C11.7387753,9.65447535 11.1603871,10.1892942 10.6783969,10.4789878 C10.3120844,10.701829 9.96505143,10.8578179 9.57945928,11.0360908 C9.40594281,11.1252273 9.02035066,11.5040574 8.88539341,11.5040574 C8.30700518,12.0165921 7.70933735,12.5068428 7.26590637,13.0862299 C6.72607736,13.7770376 6.0705707,14.1335836 5.39578444,14.5346977 C4.72099817,14.9358119 5.06803111,15.6266196 5.28010679,16.250575 C5.43434365,16.6962574 5.53074169,17.2979287 5.68497855,17.7881793 C5.95489306,18.5904077 6.22480756,19.4149201 6.62967932,20.1502961 C6.97671226,20.7965356 7.11166951,21.6879004 7.63221892,22.1335828 C7.94069264,22.4009923 8.30700518,22.5124129 8.6154789,22.7352541 C8.88539341,22.9358112 8.98179145,23.1140841 9.17458752,23.4037777 C9.46378164,23.827176 9.86865339,24.1614378 10.1578475,24.5848361 C10.4856008,25.0305185 10.774795,25.4762009 11.1796667,25.8327468 C11.7966142,26.3898498 12.5292392,26.790964 13.1269071,27.3926352 C13.5896177,27.8606018 14.1487263,28.1502953 14.7078349,28.5291254 C15.9031706,29.3313537 17.503378,29.5319108 18.8529505,29.933025 C19.6819737,30.1781503 20.4917172,30.4455598 21.3207403,30.7129692 C22.0148062,30.9580945 22.6703128,31.3369246 23.3643787,31.5597658 C23.9427669,31.7603229 25.0609842,32.4288465 25.6200928,31.9831641 C26.0249645,31.6711864 26.3141587,31.0026628 26.5069547,30.4678439 C26.6226324,30.1112979 26.6997508,29.7101838 26.7961488,29.375922 C26.9311061,28.8633872 27.0275041,28.4177048 27.1046226,27.9274541 C27.2203002,27.169794 27.5287739,26.5458387 27.4323759,25.7658945 C27.3166983,24.8745296 26.9311061,24.1168695 26.5069547,23.4260618 C26.1406422,22.8021064 25.7357704,22.4455605 25.1766618,22.0444463 C25.6008132,21.9330257 25.1573822,21.7324686 25.215221,21.4873433 C25.2730599,21.2645021 25.7357704,20.9748086 25.9092869,20.9079562 C26.1406422,20.8188197 26.3141587,20.8411038 26.545514,20.8633879 C26.9503857,20.9079562 27.1431818,20.7965356 27.5287739,20.685115 C27.8372477,20.5959785 28.1071622,20.5959785 28.4156359,20.4622738 C28.6277116,20.3731373 28.8976261,20.3731373 29.0904222,20.2394326 C29.2639386,20.1057279 29.3988959,19.8160343 29.5916919,19.6377613 C29.8423268,19.392636 30.0158433,19.0806583 30.2471986,18.835533 C30.5363927,18.3452823 31.307577,18.0333046 31.7317284,17.7436111 C32.2522778,17.364781 32.7149884,16.9413827 33.177699,16.4957003 C33.7946464,15.8940291 34.7586268,14.7798231 35.6262091,15.136369 C36.1274789,15.3369261 36.6865875,16.072302 37.0721797,16.4957003 C37.5541699,16.985951 38.0361601,17.4984858 38.4603114,18.0555888 C38.7880648,18.4789871 39.1350977,18.9915218 39.4050122,19.4594884 C39.6556471,19.9051708 39.6749267,19.9051708 39.2507753,20.1057279 C39.0194201,20.2171485 38.7302259,20.2394326 38.4988706,20.3508532 C38.3253542,20.5291261 37.399933,20.7519673 37.0721797,20.8856721 C36.4359526,21.1307974 35.7033276,21.3759227 35.1827781,21.8661734 C34.7393472,22.2672875 34.4694327,22.6684017 33.9874425,23.0026635 C33.5247319,23.3146412 33.0427417,23.8494601 32.5414719,24.0723013 L32.5414719,24.0723013 L32.5414719,24.0723013 C31.8088468,24.4734155 31.3846955,26.0333039 30.9219849,26.7463958 C30.5749519,27.2812146 30.0929617,27.7491812 29.9001657,28.3731365 C29.8423268,28.5959778 29.6302512,29.7993203 29.8423268,29.9775932 C29.244659,30.0444456 29.0518629,31.5820499 28.9169057,32.0500164 C28.5891524,33.2533589 28.261399,34.4344173 27.9336457,35.6154757 C27.7022904,36.4399882 27.1239022,36.9970912 26.9503857,37.7770354 C26.8539877,38.267286 26.7768692,38.7798208 26.9696653,39.2923556 C27.2588594,40.0277316 27.5866128,39.8940268 28.2228398,39.7603221 C27.6444516,39.9608792 28.9554649,39.9831633 29.0711425,39.9831633 C29.8423268,40.0054474 30.6135112,40.0500157 31.3846955,40.116868 C31.5389323,40.1391522 31.6931692,40.1391522 31.8666856,40.1391522 C34.7586268,40.116868 37.6120087,39.738038 40.4268314,39.1140826 C40.98594,38.8466732 41.5064894,38.4009908 42.0848777,38.2004337 C42.7596639,37.9553084 43.492289,37.9775925 44.1477957,37.6878989 C44.5141082,37.5319101 44.7647431,37.2645006 45.015378,37.0193753 C45.2660129,36.77425 45.5359274,36.5514088 45.8058419,36.3285676 C45.8829604,36.2617152 46.3456709,35.8383169 46.4227894,35.8383169 C46.5963058,35.6377598 46.8662203,35.5263392 47.0590164,35.3257821 C47.1939737,35.1920774 47.3482105,34.8800997 47.4831678,34.7686791 C47.7723619,34.5458379 48.3700297,34.6126903 48.7363423,34.3007126 C49.5653654,33.9887349 50.1437536,33.3647795 50.8378195,32.8076765 C51.1270136,32.6071194 52.9585763,31.5374817 52.727221,30.9803786 L52.727221,30.9803786 Z" id="Shape" sketch:type="MSShapeGroup"></path>
        </g>
    </g>
</svg>